<?xml version="1.0" encoding="utf-8"?>
<!-- Generator: Adobe Illustrator 16.0.0, SVG Export Plug-In . SVG Version: 6.00 Build 0)  -->
<!DOCTYPE svg PUBLIC "-//W3C//DTD SVG 1.1//EN" "http://www.w3.org/Graphics/SVG/1.1/DTD/svg11.dtd">
<svg version="1.1" id="Layer_1" xmlns="http://www.w3.org/2000/svg" xmlns:xlink="http://www.w3.org/1999/xlink" x="0px" y="0px"
	 width="25.501px" height="25.5px" viewBox="0 0 25.501 25.5" enable-background="new 0 0 25.501 25.5" xml:space="preserve">
<g>
	<defs>
		<rect id="SVGID_9_" x="0.388" y="-1.009" width="27.39" height="25.5"/>
	</defs>
	<clipPath id="SVGID_2_">
		<use xlink:href="#SVGID_9_"  overflow="visible"/>
	</clipPath>
	<g clip-path="url(#SVGID_2_)">
		<defs>
			<rect id="SVGID_11_" x="-618.31" y="-181.32" width="841.89" height="595.275"/>
		</defs>
		<clipPath id="SVGID_4_">
			<use xlink:href="#SVGID_11_"  overflow="visible"/>
		</clipPath>
		<g clip-path="url(#SVGID_4_)">
			<path fill="#010103" d="M18.258,17.634c0.005-0.16-0.021-0.336-0.021-0.453c-0.001-0.453-0.001-0.906-0.001-1.357
				c-0.001-0.961-0.001-1.921-0.002-2.881c-0.001-1.092-0.124-2.178-0.155-3.268c-0.014-0.46-0.062-0.899-0.13-1.354
				c-0.037-0.26-0.071-0.529-0.071-0.795c-0.027-0.09-0.052-0.18-0.078-0.27C17.789,7.3,17.78,7.345,17.773,7.39V7.17
				c-0.005-0.014-0.008-0.028-0.012-0.043c-0.002-0.006-0.004-0.01-0.005-0.016l-0.003-0.009c-0.009-0.028-0.019-0.056-0.027-0.084
				c-0.001,0-0.002-0.001-0.002-0.001c-0.177-0.025-0.312,0.021-0.495,0.039c-0.247,0.025-0.498,0.009-0.746-0.012
				c-0.505-0.042-0.994-0.095-1.503-0.09c-1.038,0.013-2.063,0.045-3.1-0.044C10.88,6.824,9.899,6.747,8.904,6.925
				C8.9,6.926,8.896,6.927,8.893,6.927C8.869,6.873,8.781,6.88,8.772,6.95C8.269,7.042,7.766,7.147,7.251,7.165
				C7.072,7.17,7.022,7.201,7.006,7.271C6.999,7.252,6.994,7.234,6.985,7.217C6.984,7.213,6.979,7.213,6.979,7.218
				c-0.003,0.078,0,0.156,0.004,0.235C6.981,7.461,6.98,7.472,6.979,7.481c0,0.004,0.004,0.005,0.006,0.003
				c0.02,0.328,0.077,0.661,0.102,0.986c0.03,0.433,0.04,0.865,0.053,1.299c0.027,0.901,0.008,1.804-0.001,2.705
				c-0.021,1.897,0.242,3.781,0.25,5.677c-0.035-0.004-0.075,0.029-0.059,0.068c0.086,0.205,0.226,0.364,0.396,0.487
				c0.008,0.011,0.019,0.019,0.03,0.021c0.488,0.332,1.219,0.39,1.757,0.416c1.135,0.058,2.277-0.125,3.405-0.234
				c0.696-0.068,1.399-0.094,2.099-0.126c0.808-0.038,1.64,0.019,2.442-0.081c0.303-0.038,0.651-0.146,0.763-0.464
				C18.284,18.056,18.29,17.843,18.258,17.634 M8.474,18.771c-0.004-0.004-0.008-0.008-0.012-0.012
				c-0.028-0.027-0.056-0.054-0.082-0.08c-0.022-0.033-0.044-0.065-0.067-0.097c0.12,0.091,0.245,0.17,0.38,0.233
				C8.619,18.802,8.546,18.789,8.474,18.771 M17.503,8.783c0.002,0.117,0.007,0.234,0.014,0.351
				c-0.028,0.167-0.045,0.336-0.055,0.505C17.456,9.352,17.464,9.065,17.503,8.783 M17.472,8.212
				c0.012-0.053,0.022-0.107,0.028-0.161c-0.002,0.078-0.007,0.155-0.014,0.234C17.481,8.261,17.476,8.238,17.472,8.212
				 M17.649,8.512c0.003,0.021,0.007,0.04,0.011,0.061c-0.006,0.005-0.01,0.011-0.013,0.019c-0.002,0.007-0.004,0.014-0.006,0.022
				c-0.001-0.045-0.002-0.09-0.003-0.136C17.64,8.493,17.644,8.502,17.649,8.512 M17.767,10.499c0.004,0.021,0.008,0.04,0.013,0.06
				c-0.001,0.056-0.003,0.111-0.003,0.167c0,0.011,0.002,0.02,0.005,0.027c0.004,0.11,0.008,0.219,0.014,0.33
				c-0.01,0.009-0.017,0.022-0.017,0.039c0-0.001-0.001-0.002-0.001-0.003C17.781,10.912,17.776,10.706,17.767,10.499
				 M12.584,17.636L12.584,17.636c-0.014,0.006-0.026,0.014-0.038,0.021c-0.006-0.024-0.023-0.043-0.05-0.052
				c-0.192-0.06-0.39-0.094-0.587-0.115c-0.046-0.023-0.093-0.045-0.141-0.064c0.034-0.002,0.067-0.003,0.1-0.004
				c0.051,0.016,0.102,0.029,0.151,0.04c0.015,0.017,0.033,0.029,0.061,0.029c0.029,0,0.061,0,0.091-0.001
				c0.117,0.018,0.233,0.025,0.351,0.021C12.505,17.558,12.523,17.618,12.584,17.636 M12.149,18.144
				c0.028,0.024,0.057,0.047,0.084,0.068c-0.02,0.012-0.041,0.023-0.061,0.034c-0.004,0.001-0.007,0.001-0.01,0.001
				c0.018-0.044-0.006-0.107-0.055-0.127c0.005-0.004,0.011-0.009,0.016-0.014C12.129,18.122,12.137,18.134,12.149,18.144
				 M11.588,18.564c-0.028,0.015-0.056,0.027-0.082,0.041c-0.022-0.004-0.043-0.006-0.064-0.01c0.022-0.013,0.043-0.025,0.065-0.039
				C11.534,18.56,11.56,18.562,11.588,18.564 M7.358,12.356c-0.001-0.349-0.002-0.697-0.004-1.046
				c0.034,0.424,0.068,0.847,0.104,1.27c-0.02,0.016-0.032,0.039-0.035,0.065c-0.001,0.007-0.002,0.015-0.003,0.021
				C7.398,12.563,7.38,12.459,7.358,12.356 M7.725,7.633c0.08-0.015,0.159-0.035,0.237-0.057C7.906,7.622,7.854,7.672,7.806,7.728
				C7.779,7.696,7.753,7.664,7.725,7.633 M16.744,7.474c0.023,0.035,0.05,0.069,0.075,0.103c-0.015,0.032-0.028,0.065-0.041,0.098
				C16.767,7.607,16.755,7.541,16.744,7.474 M17.348,10.076c0,0.006,0.001,0.014,0.002,0.022c0.003,0.096,0.008,0.192,0.012,0.288
				v0.001C17.356,10.283,17.353,10.179,17.348,10.076 M17.975,13.33c-0.008-0.002-0.017-0.001-0.024,0.001
				c0.009-0.065,0.017-0.129,0.023-0.195C17.975,13.201,17.975,13.265,17.975,13.33 M17.934,13.874
				c-0.006,0.007-0.011,0.017-0.011,0.029c-0.001,0.286-0.016,0.573-0.032,0.858c0.014-0.357,0.008-0.719,0.002-1.078
				c0.012-0.06,0.022-0.119,0.032-0.178C17.927,13.627,17.931,13.75,17.934,13.874 M17.79,14.9
				c-0.006,0.109-0.015,0.219-0.024,0.328c0.009-0.401,0.021-0.803,0.016-1.203c0.004-0.002,0.007,0,0.009-0.002V14.9z
				 M17.546,13.623c0.005-0.083,0.011-0.166,0.016-0.249c0.017,0.388,0.027,0.774,0.01,1.16c-0.01-0.071-0.019-0.142-0.029-0.211
				C17.549,14.088,17.553,13.855,17.546,13.623 M12.151,17.685c0-0.004,0.001-0.008,0.001-0.013
				c0.041,0.009,0.083,0.017,0.124,0.027c-0.008,0.004-0.016,0.007-0.023,0.01C12.22,17.703,12.185,17.694,12.151,17.685
				 M10.027,18.541c-0.04-0.049-0.077-0.105-0.111-0.17c0.073-0.005,0.147-0.007,0.224-0.007c-0.009,0.054,0.001,0.11,0.041,0.171
				c0,0.001,0,0.001,0.001,0.001C10.13,18.539,10.079,18.541,10.027,18.541 M9.141,18.153c0.054,0.024,0.112,0.046,0.169,0.063
				c-0.015,0.012-0.031,0.025-0.047,0.038C9.223,18.22,9.182,18.185,9.141,18.153 M7.854,10.529
				c-0.004-0.038-0.009-0.076-0.014-0.114c0.005-0.003,0.01-0.005,0.013-0.01c0.014-0.012,0.025-0.025,0.037-0.036
				C7.876,10.42,7.864,10.475,7.854,10.529 M8.39,8.872l0.002-0.003C8.43,9.035,8.46,9.201,8.486,9.368
				c0.001,0.016,0.003,0.032,0.005,0.048c0,0.045,0.002,0.091,0.003,0.136C8.481,9.517,8.47,9.481,8.457,9.447
				C8.447,9.251,8.43,9.06,8.39,8.872 M8.602,10.686c-0.01,0.125-0.024,0.25-0.046,0.374c0,0.001-0.001,0.003-0.002,0.004
				c-0.014-0.055-0.026-0.109-0.036-0.164c0.001-0.002,0.001-0.004,0.002-0.005C8.548,10.826,8.575,10.754,8.602,10.686
				 M15.445,11.77c0.221-0.149,0.435-0.114,0.628,0.062c-0.058,0.025-0.117,0.041-0.177,0.053c0.021-0.03-0.001-0.085-0.045-0.088
				c-0.119-0.006-0.238-0.008-0.357-0.009C15.478,11.782,15.462,11.775,15.445,11.77 M16.802,11.786
				c0.004-0.023,0.006-0.046,0.01-0.069c0,0.051,0.001,0.101,0.002,0.151c-0.003,0.03-0.006,0.06-0.009,0.09L16.802,11.786z
				 M16.98,11.108v1.164c-0.002,0.028-0.005,0.056-0.006,0.083c-0.02-0.162-0.032-0.325-0.035-0.489
				C16.961,11.615,16.958,11.361,16.98,11.108 M11.666,16.961c-0.019-0.017-0.042-0.026-0.069-0.021
				c-0.054,0.015-0.108,0.025-0.162,0.035c-0.682,0.045-1.366,0.074-2.05,0.051c-0.003-0.196-0.007-0.391-0.012-0.586
				c0.038-0.063,0.075-0.127,0.115-0.188c0.044-0.073-0.067-0.137-0.112-0.065c-0.004,0.004-0.007,0.009-0.01,0.014
				c-0.033-1.205-0.098-2.41-0.164-3.614c0.006-0.01,0.013-0.021,0.021-0.032c1.146,0.234,2.294,0.155,3.458,0.055
				c1.278-0.111,2.55-0.294,3.834-0.339c0.002,0,0.005-0.001,0.008-0.001c0.002,0.943,0.047,1.903,0.192,2.835
				c0.104,0.677,0.328,1.52-0.534,1.74c-0.513,0.129-1.114,0.062-1.638,0.047c-0.579-0.017-1.156-0.039-1.735-0.006
				C12.428,16.91,12.047,16.937,11.666,16.961 M11.106,18.418l-0.038,0.007c0.011-0.006,0.02-0.011,0.029-0.015
				C11.1,18.414,11.103,18.417,11.106,18.418 M8.901,17.437c-0.023,0.058-0.051,0.113-0.076,0.168
				c-0.03,0.056-0.062,0.107-0.098,0.16L8.643,17.74c0.017-0.067,0.033-0.133,0.049-0.2c0.026,0.005,0.054-0.003,0.07-0.028
				c0.062-0.098,0.121-0.197,0.178-0.297c0.032,0.076,0.065,0.152,0.1,0.227C9.011,17.394,8.928,17.376,8.901,17.437 M8.207,16.892
				c0.01-0.004,0.018-0.01,0.025-0.019c0.041-0.045,0.078-0.093,0.114-0.144c0.001,0.026,0.002,0.054,0.003,0.08
				c-0.052,0.191-0.091,0.389-0.111,0.59C8.23,17.232,8.22,17.062,8.207,16.892 M8.121,12.688c-0.002-0.024-0.003-0.046-0.007-0.069
				l0.057-0.062C8.152,12.601,8.138,12.645,8.121,12.688 M8.075,12.25c-0.011-0.081-0.021-0.162-0.031-0.243
				C8.065,12.008,8.089,12,8.104,11.98c0.043-0.054,0.084-0.108,0.126-0.161c0,0.011-0.001,0.021-0.001,0.032
				C8.177,11.983,8.125,12.117,8.075,12.25 M8.573,11.467c0.025,0.002,0.05-0.006,0.064-0.028c0.001,0.057,0.001,0.113,0.001,0.171
				l-0.106,0.167c-0.017,0.001-0.034,0.002-0.052,0.003c-0.006-0.023-0.01-0.044-0.015-0.066C8.501,11.63,8.537,11.548,8.573,11.467
				 M16.352,11.612c0.018-0.004,0.034-0.008,0.048-0.013c0.014,0.02,0.026,0.038,0.038,0.056
				C16.41,11.64,16.381,11.625,16.352,11.612 M16.247,11.754c0.011,0.006,0.021,0.012,0.032,0.017
				c0.019,0.011,0.037,0.018,0.057,0.028c0.026,0.014,0.054,0.027,0.08,0.04v-0.001c0.006,0.002,0.01,0.005,0.016,0.007
				c0.034,0.015,0.063-0.009,0.074-0.04c0.006,0.003,0.011,0.006,0.015,0.009c0.019,0.044,0.033,0.089,0.045,0.134
				c0,0.007,0.001,0.013,0.001,0.02c-0.015-0.005-0.032-0.008-0.052-0.008c-0.069,0.002-0.136,0.006-0.204,0.008
				C16.303,11.879,16.279,11.815,16.247,11.754 M16.969,16.57l0.017-0.045c0.001,0.022,0.001,0.046,0.002,0.068
				c-0.005,0.004-0.011,0.006-0.015,0.01C16.972,16.591,16.97,16.581,16.969,16.57 M17.066,16.253c0-0.017,0-0.035-0.001-0.052
				c0.02-0.161,0.014-0.329-0.004-0.497c0.001-0.091,0.002-0.184,0.006-0.275c0.002,0.004,0.003,0.01,0.004,0.015
				c0.004,0.018,0.007,0.036,0.011,0.054c0.001,0.016,0.003,0.03,0.004,0.044c0.001,0.095,0.004,0.187,0.01,0.28
				C17.094,15.964,17.082,16.109,17.066,16.253 M16.994,15.177c-0.003-0.021-0.007-0.043-0.01-0.063
				c0.004,0.013,0.007,0.028,0.011,0.042C16.995,15.163,16.994,15.168,16.994,15.177 M16.807,12.437
				c0.014-0.007,0.027-0.02,0.034-0.039c0.003-0.01,0.006-0.021,0.009-0.03c0.006,0.057,0.014,0.114,0.023,0.171
				c-0.021-0.013-0.051-0.01-0.065,0.008C16.808,12.51,16.807,12.473,16.807,12.437 M16.931,14.207
				c-0.033-0.143-0.06-0.287-0.081-0.432c-0.015-0.159-0.024-0.32-0.03-0.482C16.862,13.597,16.897,13.902,16.931,14.207
				 M16.847,12.816c0.001-0.01,0.003-0.019,0.004-0.028c0.08,0.323,0.115,0.652,0.13,0.984
				C16.942,13.454,16.899,13.134,16.847,12.816 M16.782,12.627c-0.001-0.006-0.001-0.014-0.001-0.021
				c0.003,0,0.005-0.001,0.007-0.001C16.786,12.614,16.784,12.621,16.782,12.627 M9.981,17.458c0.036-0.012,0.072-0.027,0.107-0.042
				c0.002,0.024,0.012,0.046,0.032,0.06h-0.067C10.029,17.47,10.007,17.464,9.981,17.458 M10.208,17.476
				c0.093-0.025,0.186-0.047,0.283-0.061c-0.052,0.02-0.101,0.039-0.152,0.057c-0.003,0-0.006,0.002-0.009,0.004H10.208z
				 M8.878,17.056c-0.035,0.062-0.071,0.123-0.108,0.186c0.025-0.092,0.05-0.184,0.075-0.275
				C8.854,16.997,8.866,17.027,8.878,17.056 M11.231,12.067c0.019,0.009,0.035,0.018,0.053,0.026
				c-0.027,0.004-0.056,0.01-0.082,0.014C11.213,12.095,11.223,12.081,11.231,12.067 M12.913,12.119
				c-0.111-0.024-0.225-0.048-0.335-0.074h0.163c0.016,0,0.025-0.005,0.034-0.011C12.821,12.062,12.866,12.091,12.913,12.119
				 M12.482,12.168c-0.15-0.015-0.3-0.042-0.448-0.076c0.021-0.007,0.039-0.013,0.06-0.021c0.118,0.021,0.235,0.046,0.352,0.072
				C12.459,12.151,12.471,12.162,12.482,12.168 M11.725,12.333c-0.001,0-0.002-0.001-0.004-0.001
				c-0.006-0.004-0.013-0.007-0.022-0.009c-0.005-0.001-0.009-0.002-0.013-0.003c-0.009-0.003-0.019-0.006-0.029-0.01h0.546
				c-0.091,0.009-0.181,0.017-0.27,0.025C11.862,12.333,11.794,12.333,11.725,12.333 M11.456,12.187
				c0.043-0.007,0.087-0.015,0.13-0.022c0.064,0.003,0.132,0.001,0.199-0.008c0.038,0.01,0.077,0.02,0.116,0.03H11.456z
				 M10.93,12.319c0.017,0.002,0.036,0.003,0.053,0.005h-0.063C10.923,12.323,10.927,12.321,10.93,12.319 M11.358,12.255
				c-0.051-0.009-0.104-0.017-0.155-0.026l0.176-0.029C11.362,12.212,11.355,12.236,11.358,12.255 M8.452,15.332
				c-0.009,0.03-0.017,0.061-0.023,0.089c-0.001-0.014-0.002-0.028-0.002-0.045C8.435,15.362,8.442,15.347,8.452,15.332
				L8.452,15.332z M8.772,11.779v-0.032l0.013-0.021c-0.003,0.018-0.006,0.035-0.008,0.053H8.772z M8.874,12.353
				c0.002,0.033,0.004,0.067,0.006,0.101c-0.023,0.004-0.045,0.007-0.066,0.008c0.009-0.067,0.02-0.133,0.028-0.201
				c0.009,0.008,0.018,0.016,0.029,0.024C8.872,12.307,8.873,12.331,8.874,12.353 M8.816,13.62c0.004-0.005,0.009-0.009,0.013-0.013
				c0.024-0.034,0.004-0.073-0.027-0.092c0.033-0.037,0.066-0.071,0.1-0.106c0.005-0.004,0.01-0.009,0.015-0.013
				c-0.006,0.094-0.011,0.188-0.013,0.283c-0.047,0.047-0.094,0.096-0.138,0.145c-0.003-0.045-0.005-0.09-0.008-0.135
				c0.008-0.01,0.017-0.02,0.026-0.029C8.795,13.646,8.808,13.634,8.816,13.62C8.817,13.62,8.817,13.62,8.816,13.62 M8.609,13.455
				c-0.034,0.021-0.069,0.044-0.106,0.064c0.016-0.06,0.032-0.121,0.046-0.182c0.015-0.014,0.031-0.028,0.047-0.043
				C8.6,13.348,8.605,13.4,8.609,13.455 M8.894,13.872c-0.018,0.192-0.056,0.381-0.106,0.565c-0.003-0.146-0.008-0.289-0.014-0.436
				C8.812,13.957,8.852,13.914,8.894,13.872 M8.918,13.197c-0.033,0.033-0.067,0.066-0.1,0.1c-0.02,0.018-0.041,0.035-0.062,0.053
				c0.006-0.08,0.01-0.16,0.012-0.241c0.001-0.04-0.033-0.064-0.066-0.063c-0.002-0.013-0.004-0.027-0.006-0.04
				c0.062-0.084,0.129-0.164,0.198-0.243C8.902,12.908,8.91,13.052,8.918,13.197 M8.79,12.671c0.003-0.022,0.005-0.046,0.008-0.068
				c0.018,0,0.037-0.001,0.056-0.004C8.833,12.624,8.811,12.647,8.79,12.671 M8.54,14.22c0.026,0.018,0.064,0.017,0.087-0.02
				c0.008-0.012,0.015-0.023,0.022-0.035c0.006,0.18,0.011,0.359,0.013,0.54C8.631,14.747,8.6,14.789,8.57,14.83
				c-0.013-0.174-0.034-0.35-0.066-0.521C8.516,14.279,8.526,14.249,8.54,14.22 M8.809,14.812c-0.005,0.06-0.011,0.119-0.016,0.179
				c0-0.046-0.001-0.093-0.001-0.14C8.798,14.838,8.804,14.826,8.809,14.812 M8.639,12.425C8.63,12.418,8.62,12.414,8.61,12.407
				c-0.015-0.093-0.032-0.186-0.052-0.28c0.027-0.049,0.053-0.099,0.082-0.149C8.641,12.126,8.64,12.275,8.639,12.425 M8.404,14.566
				c0.021,0.15,0.033,0.305,0.04,0.457c-0.011,0.017-0.02,0.033-0.03,0.052c-0.007-0.162-0.013-0.324-0.019-0.485
				C8.398,14.581,8.401,14.574,8.404,14.566 M8.801,16.589c-0.003-0.008-0.005-0.014-0.008-0.021
				c0.012-0.201,0.025-0.402,0.042-0.604l0.072-0.167c0.026-0.057-0.006-0.104-0.05-0.118c0.009-0.094,0.018-0.187,0.025-0.281
				C8.948,15.802,8.937,16.197,8.801,16.589 M8.91,15.099c0.009-0.09,0.018-0.181,0.024-0.27c0.007,0.1,0.016,0.201,0.024,0.3
				C8.947,15.112,8.931,15.101,8.91,15.099 M9.041,16.086c0.005,0.142,0.009,0.282,0.013,0.423
				c-0.035,0.021-0.071,0.039-0.108,0.057C8.997,16.408,9.025,16.247,9.041,16.086 M9.366,12.113
				c-0.062,0.009-0.127,0.015-0.189,0.018c-0.001-0.027-0.003-0.053-0.004-0.08c0.024,0.002,0.052,0.004,0.076,0.008
				c0.039,0.015,0.078,0.029,0.117,0.041C9.366,12.104,9.366,12.107,9.366,12.113 M8.43,12.387c0.017,0.032,0.038,0.062,0.06,0.088
				c0.006,0.029,0.011,0.06,0.016,0.09C8.45,12.66,8.4,12.754,8.356,12.853c-0.001-0.101-0.001-0.2-0.001-0.301
				C8.38,12.497,8.403,12.441,8.43,12.387 M8.273,14.939c0.003,0.062,0.005,0.127,0.007,0.188c-0.013-0.026-0.025-0.055-0.039-0.084
				C8.253,15.009,8.264,14.974,8.273,14.939 M8.578,15.822c0.005-0.127,0.009-0.254,0.011-0.381
				c0.013-0.051,0.027-0.103,0.044-0.152l0.029-0.002c-0.002,0.197-0.005,0.395-0.009,0.591c-0.013,0.021-0.023,0.041-0.035,0.062
				C8.604,15.9,8.592,15.861,8.578,15.822 M8.909,16.722c0.052-0.02,0.101-0.043,0.147-0.067c0.001,0.024,0.001,0.05,0.001,0.075
				c-0.041,0.074-0.083,0.148-0.124,0.225c-0.017-0.045-0.034-0.09-0.05-0.136C8.892,16.788,8.9,16.754,8.909,16.722 M9.062,16.994
				c0.002,0.098,0.005,0.195,0.006,0.293c-0.023-0.057-0.049-0.115-0.071-0.172C9.019,17.075,9.042,17.034,9.062,16.994
				 M9.389,17.409c0.051,0.009,0.103,0.017,0.153,0.022c-0.051,0.008-0.103,0.016-0.152,0.021
				C9.389,17.437,9.39,17.422,9.389,17.409 M9.391,17.874c0-0.037,0-0.073,0-0.11c0.117,0.025,0.233,0.047,0.349,0.063
				C9.621,17.831,9.504,17.847,9.391,17.874 M9.195,12.495v-0.003l-0.003-0.053c0.081,0.023,0.165,0.041,0.249,0.052
				C9.359,12.493,9.277,12.495,9.195,12.495 M10.603,12.432c0.006,0.003,0.014,0.004,0.021,0.004
				c0.014,0.001,0.027,0.001,0.042,0.001c-0.037,0.002-0.075,0.005-0.113,0.007C10.569,12.44,10.587,12.436,10.603,12.432
				 M12.793,12.22c0.035,0.008,0.069,0.015,0.104,0.022c-0.031,0.003-0.064,0.006-0.098,0.009
				C12.8,12.241,12.798,12.229,12.793,12.22 M13.31,12.201c-0.002-0.002-0.004-0.004-0.007-0.006
				c-0.106-0.055-0.208-0.114-0.31-0.175h0.02c0.101,0.003,0.204,0.005,0.306,0.006c0.155,0.03,0.313,0.04,0.482,0.02
				c0.005-0.001,0.007-0.003,0.011-0.004c0.109,0.029,0.218,0.055,0.328,0.078C13.862,12.146,13.587,12.172,13.31,12.201
				 M13.646,11.873c-0.009-0.001-0.019-0.004-0.028-0.007c0.07,0.001,0.144,0.001,0.215,0C13.77,11.869,13.709,11.872,13.646,11.873
				 M12.55,11.869c-0.14-0.006-0.281-0.015-0.42-0.026c0.14-0.004,0.281-0.006,0.421-0.006
				C12.548,11.848,12.547,11.857,12.55,11.869 M11.897,11.951c-0.007,0.012-0.011,0.026-0.01,0.04c-0.003,0-0.004-0.001-0.007-0.001
				c-0.185-0.011-0.36-0.059-0.538-0.095l-0.053-0.018c0.006-0.003,0.012-0.004,0.018-0.006c0.037-0.001,0.074-0.002,0.111-0.003
				C11.575,11.903,11.735,11.93,11.897,11.951 M10.967,11.878c0.002,0.006,0.006,0.011,0.01,0.016
				c0.02,0.016,0.038,0.031,0.056,0.046c0.002,0.003,0.004,0.004,0.006,0.007c-0.029,0.003-0.06,0.008-0.088,0.012
				c-0.009-0.024-0.028-0.045-0.062-0.045c-0.081,0-0.162,0-0.242,0.001c-0.009-0.01-0.017-0.023-0.025-0.035
				C10.735,11.881,10.85,11.881,10.967,11.878 M9.666,12.19c0.01-0.002,0.018-0.004,0.027-0.006c0.046,0.001,0.094,0.001,0.14,0.002
				c0.041,0.004,0.081,0.006,0.122,0.006C9.858,12.197,9.763,12.195,9.666,12.19 M9.586,12.01C9.534,11.995,9.48,11.98,9.43,11.968
				c0.002,0,0.003,0,0.004-0.001c0.101,0.009,0.198,0.016,0.296,0.018C9.682,11.993,9.634,12,9.586,12.01 M9.315,11.822
				c-0.052-0.004-0.104-0.009-0.156-0.015c-0.003-0.034-0.005-0.069-0.006-0.104c0.145,0.041,0.289,0.072,0.438,0.097
				C9.499,11.806,9.407,11.812,9.315,11.822 M8.792,10.778c-0.006-0.002-0.014-0.003-0.02-0.004
				c0.009-0.013,0.016-0.027,0.016-0.048V10.7C8.789,10.726,8.791,10.751,8.792,10.778 M8.802,10.987
				c0.006,0.114,0.011,0.227,0.017,0.342c-0.004,0.005-0.008,0.011-0.011,0.018c-0.013-0.002-0.025-0.003-0.038-0.004
				c-0.002-0.092-0.004-0.184-0.006-0.277L8.802,10.987z M8.225,12.921c0,0.052,0.001,0.104,0.001,0.156
				c-0.018,0.017-0.037,0.036-0.055,0.053C8.186,13.061,8.205,12.992,8.225,12.921 M8.194,15.197
				c0.021,0.049,0.039,0.097,0.059,0.146c-0.037,0.062-0.074,0.125-0.112,0.187c0.001-0.054,0.003-0.107,0.005-0.16
				C8.162,15.312,8.179,15.253,8.194,15.197 M8.3,15.591c0.004,0.102,0.008,0.201,0.012,0.303c-0.045,0.197-0.087,0.395-0.136,0.59
				c-0.016-0.213-0.03-0.426-0.035-0.639C8.195,15.761,8.249,15.677,8.3,15.591 M8.524,16.788c0.013-0.039,0.024-0.078,0.036-0.117
				c0.012,0.072,0.026,0.144,0.039,0.216c-0.029,0.045-0.057,0.092-0.084,0.139C8.518,16.946,8.521,16.867,8.524,16.788
				 M9.041,17.445c0.004,0.011,0.01,0.02,0.015,0.029c-0.003,0.002-0.006,0.002-0.009,0.002C9.048,17.463,9.046,17.455,9.041,17.445
				 M9.517,17.999c0.059-0.007,0.116-0.013,0.171-0.017c0.056-0.006,0.111-0.008,0.167-0.008c-0.052,0.002-0.104,0.004-0.158,0.012
				c-0.027,0.004-0.055,0.018-0.07,0.039C9.59,18.017,9.554,18.007,9.517,17.999 M10.363,18.37c0.034,0.002,0.068,0.003,0.103,0.005
				c-0.033,0.02-0.066,0.038-0.097,0.057C10.358,18.415,10.357,18.392,10.363,18.37 M10.817,18.193
				c0.008,0.004,0.017,0.007,0.025,0.01c-0.003,0.001-0.006,0.003-0.009,0.003h-0.016C10.818,18.202,10.817,18.198,10.817,18.193
				 M10.532,17.851c-0.032,0.006-0.053,0.023-0.06,0.049c-0.007-0.002-0.014-0.002-0.02-0.004c-0.032-0.017-0.064-0.032-0.099-0.047
				c0.09-0.008,0.182-0.019,0.271-0.037c0.016,0.009,0.03,0.016,0.047,0.021C10.626,17.837,10.58,17.843,10.532,17.851
				 M10.795,17.459l0.151-0.062c0.036,0.02,0.073,0.039,0.111,0.058C10.97,17.457,10.883,17.458,10.795,17.459 M15.305,12.023
				c0.008-0.013,0.014-0.028,0.013-0.044c0.052,0.014,0.103,0.024,0.153,0.032C15.415,12.016,15.359,12.02,15.305,12.023
				 M15.443,17.17c-0.019,0.007-0.039,0.013-0.058,0.021c-0.023-0.008-0.045-0.016-0.068-0.023L15.443,17.17z M17.102,14.976
				c-0.009-0.125-0.014-0.252-0.01-0.375c0.008,0.033,0.016,0.067,0.024,0.103C17.111,14.793,17.106,14.884,17.102,14.976
				 M16.586,11.521c-0.001,0.024-0.001,0.048-0.001,0.071c-0.003,0.025-0.006,0.048-0.01,0.071c-0.014-0.014-0.026-0.03-0.039-0.044
				c-0.011-0.021-0.02-0.039-0.029-0.059c0.022-0.011,0.044-0.023,0.063-0.038C16.575,11.522,16.581,11.522,16.586,11.521
				 M16.149,11.542l-0.002-0.002h0.004L16.149,11.542z M14.45,12.021c0.105-0.003,0.211-0.008,0.315-0.013
				C14.663,12.023,14.558,12.026,14.45,12.021 M13.923,11.374c-0.048-0.004-0.096-0.01-0.144-0.015c0.069,0,0.138,0.001,0.204,0.002
				C13.964,11.366,13.942,11.37,13.923,11.374 M12.847,11.374c0.065,0.03,0.132,0.055,0.201,0.079
				c-0.028,0.004-0.055,0.011-0.082,0.018c-0.104,0.007-0.207,0.013-0.312,0.019c-0.016,0-0.033,0.001-0.051,0.002
				c-0.162-0.023-0.324-0.052-0.483-0.064C12.36,11.403,12.603,11.385,12.847,11.374 M10.537,11.879
				c0.009,0.014,0.018,0.026,0.025,0.038c-0.042,0.001-0.084,0.002-0.126,0.004c0.01-0.012,0.02-0.027,0.024-0.043
				C10.485,11.879,10.512,11.879,10.537,11.879 M8.659,9.071c-0.02,0.01-0.033,0.03-0.036,0.056C8.622,8.954,8.625,8.78,8.639,8.606
				c0.003-0.005,0.006-0.009,0.01-0.014C8.666,8.75,8.669,8.912,8.659,9.071 M8.434,11.248c-0.022,0.036-0.047,0.07-0.072,0.105
				c-0.003-0.005-0.007-0.009-0.011-0.012c0.021-0.055,0.041-0.111,0.063-0.166C8.421,11.2,8.427,11.224,8.434,11.248 M8.214,8.773
				C8.213,8.771,8.213,8.769,8.212,8.767C8.234,8.695,8.255,8.62,8.27,8.542c0.009-0.016,0.019-0.033,0.028-0.048
				c0.015,0.055,0.03,0.111,0.045,0.167C8.302,8.701,8.259,8.738,8.214,8.773 M8.094,10.594c0.008,0.103,0.17,0.104,0.162,0
				c-0.005-0.05-0.007-0.098-0.008-0.148c0.018,0.065,0.036,0.132,0.053,0.197c-0.092,0.134-0.188,0.263-0.298,0.382
				c0.004-0.202,0.035-0.401,0.083-0.595C8.087,10.484,8.09,10.539,8.094,10.594 M8.28,11.003C8.188,11.25,8.1,11.499,8.01,11.747
				c-0.019-0.129-0.035-0.259-0.051-0.387c-0.001-0.006-0.002-0.012-0.002-0.018c0.008-0.004,0.016-0.009,0.022-0.015
				C8.094,11.229,8.19,11.12,8.28,11.003 M8.146,13.418v-0.024l0.057-0.052c-0.015,0.075-0.023,0.152-0.026,0.231
				c-0.001,0.021,0.007,0.034,0.018,0.046c-0.069,0.309-0.102,0.628-0.105,0.945c-0.001,0.022,0.008,0.043,0.021,0.057
				c-0.008,0.031-0.014,0.062-0.02,0.094c-0.012-0.027-0.024-0.054-0.036-0.082C8.099,14.23,8.133,13.827,8.146,13.418 M8.03,14.812
				c0.011,0.021,0.021,0.043,0.029,0.062c-0.007,0.051-0.014,0.102-0.021,0.153c-0.014,0.001-0.025,0.006-0.036,0.012
				C8.013,14.963,8.021,14.888,8.03,14.812 M8.008,16.034c0.004,0.062,0.006,0.125,0.009,0.187c0.027,0.543,0.04,1.084-0.042,1.623
				c-0.075-0.576,0.002-1.168-0.1-1.744c0.029,0.02,0.066,0.021,0.097-0.018C7.983,16.066,7.995,16.05,8.008,16.034 M7.9,18.181
				c-0.01-0.008-0.02-0.015-0.03-0.021c-0.004-0.003-0.01-0.004-0.014-0.005c-0.002-0.085-0.005-0.169-0.009-0.254
				C7.86,17.996,7.879,18.088,7.9,18.181 M8.104,18.013c-0.003,0-0.005,0-0.008,0.002c-0.004-0.006-0.007-0.013-0.01-0.019
				c0.005-0.03,0.011-0.062,0.015-0.093c0.001,0.033,0.002,0.068,0.002,0.103C8.104,18.009,8.104,18.011,8.104,18.013 M8.386,17.63
				c0.071-0.17,0.155-0.333,0.247-0.49c-0.049,0.184-0.097,0.366-0.14,0.551c-0.014-0.004-0.024-0.008-0.036-0.012
				c-0.041-0.013-0.071,0.016-0.078,0.049c-0.029-0.015-0.061-0.027-0.09-0.041C8.325,17.691,8.368,17.671,8.386,17.63 M8.445,17.9
				c-0.002,0.014-0.005,0.025-0.008,0.037C8.41,17.91,8.382,17.88,8.354,17.853C8.386,17.868,8.416,17.884,8.445,17.9 M8.573,18.062
				c0.002-0.004,0.002-0.008,0.002-0.012c0.002,0.002,0.003,0.002,0.004,0.004C8.577,18.056,8.575,18.06,8.573,18.062 M8.974,17.652
				c0.008-0.018,0.018-0.034,0.025-0.053c0.01,0.006,0.021,0.012,0.036,0.012h0.036c0.001,0.025,0.001,0.051,0.001,0.076
				c-0.05,0.017-0.098,0.033-0.144,0.057C8.942,17.712,8.959,17.683,8.974,17.652 M9.075,17.832v0.042
				c-0.021-0.005-0.041-0.011-0.062-0.019C9.034,17.847,9.055,17.838,9.075,17.832 M9.557,18.273
				c0.007,0.002,0.015,0.004,0.023,0.005c-0.021,0.004-0.04,0.01-0.061,0.014C9.531,18.286,9.545,18.28,9.557,18.273 M9.483,18.445
				c0.081-0.025,0.165-0.042,0.249-0.055c0.026,0.049,0.052,0.094,0.078,0.137C9.7,18.511,9.591,18.486,9.483,18.445 M11.653,17.864
				c0.037-0.029,0.047-0.093-0.003-0.115c-0.019-0.008-0.039-0.017-0.059-0.024c0.026,0,0.051,0,0.078,0
				c0.114,0.022,0.227,0.049,0.339,0.076C11.893,17.833,11.773,17.853,11.653,17.864 M11.476,17.271
				c-0.066-0.004-0.134-0.008-0.202-0.015c0.019-0.008,0.035-0.015,0.054-0.024c0.057-0.002,0.113-0.006,0.171-0.01
				C11.484,17.234,11.478,17.251,11.476,17.271 M13.067,17.127c0.207-0.008,0.415-0.009,0.622-0.006
				c-0.206,0.041-0.416,0.06-0.626,0.075c-0.062,0.001-0.127,0.002-0.189,0.002c-0.005,0-0.008,0.002-0.014,0.003h-1.045
				C12.232,17.172,12.649,17.146,13.067,17.127 M15.886,17.652c0.036-0.016,0.071-0.032,0.105-0.049
				c0.021,0.021,0.052,0.033,0.082,0.022c0.259-0.087,0.512-0.185,0.76-0.294c-0.192,0.163-0.42,0.275-0.66,0.363
				C16.077,17.683,15.98,17.668,15.886,17.652 M17.131,17.587c-0.002,0-0.004-0.001-0.005-0.001l-0.038-0.17
				c0.002-0.009,0-0.019-0.006-0.026c-0.001-0.006-0.003-0.014-0.005-0.02c0.006-0.007,0.011-0.016,0.012-0.025l0.003-0.023
				c0.013-0.016,0.026-0.031,0.039-0.045V17.587z M17.434,11.395c0.007,0.214,0.008,0.427-0.002,0.638
				C17.423,11.822,17.425,11.608,17.434,11.395 M17.401,13.016c0.027,0.204,0.041,0.41,0.047,0.615
				c-0.007,0.11-0.013,0.219-0.017,0.327c-0.019-0.293-0.036-0.585-0.05-0.877L17.401,13.016z M17.308,13.545
				c0.013,0.218,0.027,0.437,0.041,0.654c-0.018,0.075-0.032,0.151-0.041,0.228C17.288,14.136,17.294,13.841,17.308,13.545
				 M17.308,15.146c0.007,0.082,0.015,0.164,0.024,0.246c-0.014-0.082-0.024-0.164-0.034-0.248
				C17.302,15.144,17.305,15.146,17.308,15.146 M17.299,15.744c-0.013,0.092-0.024,0.184-0.032,0.277
				c-0.011-0.065-0.022-0.129-0.035-0.193c-0.002-0.061-0.005-0.123-0.009-0.184c0.002-0.006,0.003-0.014,0.002-0.021
				c-0.001-0.03-0.001-0.06-0.003-0.09v-0.248C17.243,15.439,17.268,15.591,17.299,15.744 M17.249,16.585
				c0,0.154,0.004,0.307,0.007,0.459c-0.008-0.013-0.021-0.025-0.034-0.033v-0.5C17.229,16.537,17.238,16.562,17.249,16.585
				 M17.343,16.506c0-0.161,0.005-0.321,0.018-0.481c0.013,0.048,0.023,0.095,0.035,0.141c0,0.003,0.003,0.006,0.004,0.01
				c0.004,0.135,0.007,0.271,0.006,0.405c-0.013,0.114-0.032,0.226-0.059,0.338c-0.001-0.089-0.003-0.179-0.004-0.269
				c0.007-0.008,0.013-0.019,0.011-0.033C17.351,16.581,17.347,16.543,17.343,16.506 M17.91,12.253
				c-0.004,0.127-0.008,0.254-0.014,0.382V12.35C17.901,12.317,17.905,12.287,17.91,12.253 M17.79,13.274v0.336
				c-0.006,0.031-0.012,0.062-0.018,0.094c-0.006-0.141-0.013-0.281-0.025-0.42c-0.004-0.13-0.015-0.259-0.03-0.387
				c0.018-0.005,0.036-0.017,0.045-0.038c0.005-0.014,0.01-0.029,0.015-0.043c0.001,0.141,0.002,0.283,0.002,0.425
				C17.778,13.254,17.784,13.266,17.79,13.274 M17.754,12c-0.008,0.086-0.02,0.171-0.031,0.256
				c-0.012-0.103-0.027-0.207-0.041-0.309c0.006-0.178-0.005-0.358-0.008-0.507c0.009,0.006,0.02,0.009,0.031,0.009
				C17.727,11.63,17.743,11.815,17.754,12 M17.248,12.832c-0.001,0.014-0.001,0.029-0.002,0.042
				c-0.017-0.127-0.037-0.253-0.064-0.378c0.019-0.077,0.035-0.152,0.047-0.228C17.238,12.456,17.246,12.644,17.248,12.832
				 M17.152,12.932c-0.011,0.005-0.021,0.015-0.024,0.031c-0.016,0.065-0.026,0.129-0.034,0.195v-0.412
				c0.004-0.005,0.007-0.011,0.01-0.017c0.005-0.013,0.009-0.025,0.015-0.038C17.132,12.771,17.143,12.851,17.152,12.932
				 M16.859,11.047c-0.006,0.048-0.012,0.096-0.017,0.144c-0.003-0.041-0.007-0.083-0.012-0.124
				C16.841,11.061,16.85,11.055,16.859,11.047 M16.592,11.372c-0.005,0.008-0.011,0.016-0.017,0.024
				c-0.052,0.004-0.102,0.008-0.151,0.011c-0.015-0.025-0.03-0.049-0.043-0.073c0.074-0.038,0.147-0.079,0.222-0.122
				C16.599,11.265,16.595,11.319,16.592,11.372 M16.288,11.379c0.005,0.011,0.009,0.023,0.014,0.034
				c-0.031,0.001-0.061,0.001-0.092,0.002C16.235,11.404,16.262,11.392,16.288,11.379 M15.922,11.535
				c0.021,0.014,0.042,0.03,0.062,0.045c-0.002,0.011,0.001,0.025,0.012,0.038c-0.05-0.027-0.1-0.045-0.148-0.057
				C15.873,11.552,15.896,11.542,15.922,11.535 M15.277,11.741c-0.013,0.011-0.018,0.03-0.017,0.048
				c-0.037,0.001-0.076,0.002-0.113,0.003c-0.003-0.001-0.005-0.001-0.007-0.002c-0.017-0.006-0.033-0.003-0.045,0.004l-0.068,0.003
				c-0.02-0.007-0.042-0.013-0.062-0.019c0.116-0.019,0.23-0.04,0.345-0.066C15.301,11.721,15.289,11.73,15.277,11.741
				 M14.338,11.627c0.249-0.034,0.498-0.072,0.744-0.117c0.183-0.032,0.366-0.068,0.552-0.108
				C15.218,11.536,14.781,11.601,14.338,11.627 M10.435,11.653c-0.133-0.004-0.266-0.011-0.398-0.022
				c-0.279-0.098-0.555-0.21-0.827-0.325c0.001,0,0.001,0,0.002-0.001c0.149,0.055,0.301,0.092,0.461,0.111
				c0.099,0.042,0.202,0.081,0.303,0.114C10.125,11.58,10.278,11.62,10.435,11.653 M9.123,11.104c0-0.009-0.001-0.018-0.001-0.026
				c0.006,0.005,0.012,0.011,0.019,0.017L9.123,11.104z M8.736,7.749C8.734,7.746,8.733,7.742,8.731,7.738
				c-0.044-0.091-0.093-0.167-0.148-0.23c0.041-0.029,0.08-0.06,0.117-0.094c0.021-0.019,0.027-0.042,0.025-0.065
				c0.009-0.003,0.019-0.005,0.026-0.007C8.746,7.478,8.741,7.613,8.736,7.749 M8.641,7.89c0.004,0.013,0.009,0.026,0.014,0.039
				c-0.03,0.017-0.06,0.034-0.09,0.053C8.591,7.952,8.616,7.92,8.641,7.89 M8.471,10.383c-0.006-0.138-0.007-0.278-0.007-0.418
				c0.03,0.1,0.056,0.201,0.08,0.303C8.519,10.306,8.495,10.345,8.471,10.383 M8.516,8.458c-0.015,0.021-0.03,0.041-0.045,0.061
				c-0.019-0.057-0.039-0.113-0.062-0.17C8.453,8.3,8.502,8.254,8.554,8.213C8.538,8.294,8.524,8.375,8.516,8.458 M8.3,7.995
				C8.231,8.064,8.163,8.133,8.091,8.2C8.09,8.192,8.088,8.187,8.087,8.181c0.084-0.22,0.214-0.41,0.384-0.575
				c0.027,0.029,0.053,0.063,0.077,0.1C8.46,7.797,8.377,7.895,8.3,7.995 M7.975,9.583c0.028,0.08,0.054,0.161,0.081,0.241
				C8.012,9.9,7.961,9.97,7.903,10.038c0.017-0.154,0.04-0.305,0.071-0.456C7.975,9.583,7.975,9.583,7.975,9.583 M7.772,9.499
				C7.762,9.553,7.752,9.607,7.741,9.662c-0.005-0.039-0.01-0.077-0.015-0.116C7.741,9.531,7.759,9.516,7.772,9.499 M7.885,15.672
				c0.006-0.125,0.013-0.252,0.021-0.381c0.031,0.002,0.064-0.013,0.069-0.047c0-0.003,0-0.006,0.001-0.011
				c0,0.029,0,0.059,0.001,0.089c-0.034,0.127-0.064,0.256-0.093,0.384C7.884,15.696,7.884,15.685,7.885,15.672 M7.858,18.28
				c0.006,0.004,0.014,0.009,0.02,0.012c0.097,0.101,0.194,0.199,0.293,0.298c-0.096-0.037-0.2-0.062-0.318-0.087
				C7.856,18.429,7.858,18.353,7.858,18.28 M8.17,18.271c-0.04-0.027-0.081-0.057-0.12-0.086c0.005-0.022,0.009-0.047,0.014-0.07
				c0,0,0,0.001,0.001,0.002c0.067,0.072,0.139,0.14,0.212,0.202C8.241,18.302,8.206,18.287,8.17,18.271 M8.195,18.071
				c0.026-0.009,0.049-0.029,0.05-0.064c0.001-0.028,0.001-0.058,0.001-0.088c0.054,0.058,0.107,0.112,0.164,0.165
				c-0.011,0.055-0.02,0.107-0.027,0.161C8.318,18.187,8.258,18.129,8.195,18.071 M8.623,18.275c0.205,0.171,0.427,0.314,0.67,0.412
				c0.012,0.021,0.021,0.045,0.03,0.067c-0.266-0.112-0.527-0.228-0.766-0.384C8.58,18.338,8.602,18.308,8.623,18.275
				 M13.442,18.091c0.126,0.008,0.253,0.012,0.379-0.003c0.007,0.003,0.014,0.007,0.021,0.007c0.004,0.002,0.007,0.002,0.01,0.002
				c-0.016,0.008-0.034,0.016-0.051,0.023c-0.06,0.001-0.117,0.003-0.175,0.008c-0.015-0.005-0.028-0.007-0.045-0.002
				c-0.01,0.003-0.019,0.004-0.025,0.008c-0.036,0.002-0.072,0.006-0.107,0.01c-0.016-0.014-0.037-0.021-0.065-0.014
				c-0.035,0.01-0.072,0.018-0.108,0.026C13.331,18.136,13.388,18.116,13.442,18.091 M15.734,18.185
				c-0.008-0.026-0.025-0.051-0.054-0.063c0.077-0.03,0.152-0.067,0.226-0.104c0.15-0.008,0.298-0.021,0.443-0.045
				c-0.116,0.049-0.229,0.102-0.343,0.157c-0.001,0-0.001,0.001-0.002,0.001C15.916,18.152,15.825,18.168,15.734,18.185
				 M17.36,18.13c0.004,0,0.01,0,0.015-0.001c0.051-0.005,0.075-0.071,0.04-0.101l0.025,0.003c0.113,0.006,0.116-0.161,0.014-0.181
				c0.001-0.006,0.004-0.014,0.006-0.021c0.005-0.021,0.001-0.043-0.008-0.062c0-0.002,0-0.004,0.001-0.004v-0.002
				c0-0.008,0.002-0.015,0.003-0.021c0.008-0.094-0.134-0.105-0.159-0.021c-0.001,0.002-0.001,0.004-0.002,0.006
				c-0.042,0.002-0.084,0.006-0.125,0.013c0.021-0.024,0.026-0.058,0.019-0.087c0.019-0.006,0.033-0.02,0.033-0.043v-0.446
				c0.009-0.013,0.02-0.026,0.029-0.04c0.003-0.003,0.005-0.008,0.007-0.012c0.003,0.121,0.005,0.244,0.006,0.365
				c0,0.055,0.071,0.06,0.088,0.014c0.076-0.198,0.114-0.4,0.131-0.605c0.021,0.278,0.034,0.555,0.039,0.834
				c-0.007,0.016-0.009,0.033,0,0.053c0.001,0.002,0.001,0.004,0.001,0.006c0.001,0.031,0.002,0.064,0.002,0.097
				c0,0.019,0.011,0.032,0.022,0.04c0,0.081-0.02,0.168-0.029,0.246c-0.056,0.001-0.112-0.001-0.168-0.004
				C17.354,18.148,17.356,18.14,17.36,18.13 M17.53,15.73c-0.003-0.029-0.007-0.062-0.011-0.092
				c0.008-0.035,0.019-0.069,0.026-0.104c0.014,0.06,0.032,0.121,0.051,0.18c-0.005-0.003-0.011-0.004-0.017-0.005v-0.02
				c0-0.008-0.015-0.008-0.015,0v0.02C17.553,15.71,17.539,15.718,17.53,15.73 M17.636,14.976c0.006,0.1,0.017,0.199,0.032,0.299
				c-0.001,0.055-0.003,0.109-0.004,0.164c-0.014-0.131-0.024-0.262-0.037-0.392C17.63,15.023,17.633,14.999,17.636,14.976
				 M17.723,15.933c0.017-0.006,0.031-0.02,0.031-0.045c0.001-0.096,0.002-0.19,0.004-0.287c0.01,0.004,0.021,0.004,0.032,0.002
				v0.125c-0.008,0.012-0.011,0.025-0.005,0.043c0.002,0.007,0.004,0.013,0.005,0.018v0.346c-0.002,0.006-0.004,0.012-0.004,0.02
				c0,0.005-0.001,0.01-0.001,0.014c-0.009-0.048-0.017-0.097-0.021-0.146c-0.003-0.024-0.018-0.039-0.035-0.049
				C17.727,15.958,17.725,15.947,17.723,15.933 M17.941,15.927c0.009,0.004,0.019,0.006,0.028,0.006v0.117
				c-0.009-0.041-0.018-0.08-0.028-0.121V15.927z M17.343,9.108c-0.021-0.129-0.037-0.258-0.053-0.387
				c0.007-0.008,0.013-0.017,0.016-0.03c0.007-0.049,0.015-0.099,0.022-0.148c0.017-0.003,0.031-0.012,0.041-0.033
				c0.002-0.005,0.004-0.009,0.006-0.014c0,0,0.001-0.001,0.001-0.002c0.001-0.001,0.001-0.003,0.002-0.004
				c0.005-0.012,0.01-0.023,0.014-0.035c0.006,0.03,0.013,0.058,0.021,0.086C17.374,8.729,17.353,8.918,17.343,9.108 M17.14,7.479
				c-0.009,0.046-0.015,0.092-0.021,0.137c-0.005-0.025-0.009-0.05-0.013-0.075C17.116,7.521,17.129,7.5,17.14,7.479 M17.122,9.038
				c0.007,0.013,0.017,0.021,0.026,0.026c0.024,0.363,0.05,0.726,0.07,1.091c-0.003-0.003-0.006-0.004-0.009-0.006
				c-0.065-0.408-0.091-0.825-0.151-1.235C17.08,8.955,17.1,8.997,17.122,9.038 M17.111,10.362c0.002,0.011,0.005,0.023,0.008,0.034
				c0.003,0.097,0.006,0.193,0.01,0.291c-0.009,0.01-0.016,0.022-0.016,0.039c0.006,0.499,0.072,1.009-0.005,1.501v-0.001
				c0.029-0.454,0-0.911-0.003-1.367c0-0.047-0.043-0.067-0.078-0.059c0.004-0.018,0.008-0.038,0.012-0.057
				c0.002-0.013,0-0.025-0.003-0.035C17.07,10.593,17.096,10.478,17.111,10.362 M16.956,10.472c-0.032-0.342-0.094-0.68-0.146-1.019
				c0.057,0.297,0.114,0.595,0.167,0.893C16.972,10.388,16.965,10.43,16.956,10.472 M16.862,7.5
				c-0.033-0.052-0.069-0.107-0.106-0.167c0.018,0.001,0.037,0.002,0.056,0.003c0.021,0.052,0.042,0.104,0.062,0.156
				C16.87,7.494,16.866,7.497,16.862,7.5 M16.502,7.359C16.501,7.344,16.5,7.329,16.5,7.312c0.024,0.003,0.052,0.006,0.077,0.008
				c0,0.029-0.002,0.057-0.002,0.087l-0.009-0.021C16.554,7.358,16.525,7.353,16.502,7.359 M16.531,7.646
				c0.017,0.173,0.05,0.338,0.105,0.501c-0.012,0.003-0.024,0.009-0.034,0.017c-0.03-0.18-0.059-0.36-0.079-0.541
				C16.525,7.63,16.528,7.638,16.531,7.646 M16.84,10.753c-0.021,0.01-0.043,0.018-0.065,0.027c0-0.001,0-0.003-0.001-0.004
				c0.025-0.064,0.042-0.135,0.056-0.215C16.834,10.625,16.838,10.689,16.84,10.753 M11.275,11.451
				c0.013-0.022,0.019-0.047,0.02-0.075c0.114-0.001,0.227-0.004,0.342-0.007C11.516,11.394,11.395,11.419,11.275,11.451
				 M11.208,11.376c-0.023,0.037-0.048,0.069-0.078,0.093c-0.284-0.024-0.569-0.061-0.85-0.115
				c-0.002-0.002-0.005-0.004-0.007-0.006c0.22,0.019,0.437,0.023,0.63,0.026C11.006,11.376,11.105,11.376,11.208,11.376
				 M8.922,7.298c0.001,0,0.002-0.001,0.003-0.001C8.93,7.296,8.933,7.294,8.936,7.292C8.934,7.33,8.932,7.369,8.929,7.406
				C8.927,7.371,8.925,7.333,8.922,7.298 M7.892,7.439C7.779,7.472,7.667,7.496,7.551,7.512C7.55,7.511,7.549,7.51,7.548,7.508
				c0.075-0.03,0.149-0.054,0.223-0.072C7.811,7.439,7.852,7.44,7.892,7.439 M7.539,8.1L7.532,8.056
				C7.537,8.074,7.54,8.092,7.544,8.109C7.542,8.106,7.541,8.104,7.539,8.1 M7.5,7.792C7.499,7.787,7.498,7.781,7.498,7.773
				c0.001,0.003,0.004,0.007,0.005,0.01C7.502,7.787,7.501,7.79,7.5,7.792 M7.377,13.285c0.006,0.033,0.012,0.065,0.017,0.098
				c0.004,0.124,0.011,0.248,0.021,0.372C7.4,13.618,7.391,13.48,7.379,13.343C7.378,13.324,7.378,13.304,7.377,13.285
				 M7.767,16.269c0.051,0.394,0.032,0.795,0.045,1.191c-0.026-0.277-0.062-0.554-0.09-0.831
				C7.729,16.507,7.744,16.388,7.767,16.269 M9.078,18.825c-0.041-0.034-0.081-0.065-0.122-0.099
				c0.092,0.043,0.185,0.082,0.276,0.123c-0.002,0.008-0.003,0.017-0.002,0.024c-0.045-0.002-0.089-0.004-0.133-0.008
				C9.098,18.851,9.093,18.835,9.078,18.825 M15.964,18.409c0.259-0.063,0.513-0.144,0.764-0.231
				c-0.017,0.035,0.004,0.092,0.051,0.086c0.064-0.009,0.126-0.012,0.19-0.012C16.708,18.42,16.336,18.441,15.964,18.409
				 M17.302,18.267c0.049,0.004,0.099,0.006,0.148,0.008c-0.063,0.041-0.128,0.084-0.189,0.129
				C17.273,18.357,17.288,18.312,17.302,18.267 M17.493,18.415c-0.007,0.013-0.012,0.024-0.017,0.038
				c-0.019,0.002-0.039,0.004-0.059,0.007C17.442,18.445,17.468,18.429,17.493,18.415 M17.621,17.708v-0.172
				c0.009,0.021,0.018,0.042,0.024,0.063v0.148c-0.007-0.01-0.015-0.023-0.021-0.036C17.624,17.709,17.622,17.709,17.621,17.708
				 M17.622,17.148c0-0.418,0-0.836,0.001-1.254c0.008,0.057,0.016,0.112,0.024,0.168c-0.001,0.404-0.001,0.809-0.001,1.211
				C17.638,17.232,17.629,17.191,17.622,17.148 M17.894,16.308c0.023,0.185,0.033,0.369,0.035,0.557l-0.038-0.176v-0.256
				C17.891,16.392,17.892,16.349,17.894,16.308 M17.802,8.585c-0.01-0.034-0.021-0.067-0.031-0.101
				c0.001-0.003,0.002-0.006,0.002-0.009V8.322C17.781,8.411,17.792,8.498,17.802,8.585 M17.605,7.239
				c-0.022,0.082-0.041,0.166-0.054,0.249c-0.002,0.001-0.004,0.001-0.006,0.002c-0.015-0.036-0.029-0.073-0.045-0.109
				c-0.02-0.042-0.072-0.042-0.105-0.016c-0.006-0.017-0.015-0.034-0.022-0.05C17.456,7.297,17.535,7.274,17.605,7.239 M17.06,7.343
				c-0.035,0.055-0.064,0.111-0.091,0.169c-0.012-0.017-0.032-0.028-0.051-0.031c-0.023-0.048-0.046-0.096-0.068-0.143
				C16.917,7.342,16.987,7.344,17.06,7.343 M12.54,7.226c0.947,0.059,1.899-0.005,2.85-0.007c0.293,0,0.587,0.036,0.88,0.07
				c0.021,0.505,0.14,1.015,0.218,1.513c0.094,0.59,0.262,1.305,0.106,1.898c-0.028,0.104-0.112,0.175-0.224,0.225
				C16.28,10.953,16.19,10.977,16.1,11c-0.29,0.048-0.63,0.034-0.795,0.041c-0.643,0.034-1.288,0.027-1.93,0.036
				c-1.113,0.015-2.277,0.275-3.384,0.057c-0.128-0.069-0.263-0.11-0.4-0.119c-0.078-0.046-0.159-0.085-0.243-0.119
				c-0.104-0.078-0.185-0.173-0.249-0.28C9.055,9.717,9.012,8.819,8.96,7.919c0.017-0.256,0.029-0.513,0.028-0.771
				C9.18,7.121,9.371,7.095,9.563,7.08C10.556,7,11.553,7.165,12.54,7.226 M7.71,7.27C7.703,7.271,7.696,7.271,7.689,7.273
				C7.657,7.281,7.641,7.3,7.636,7.323c-0.059,0.017-0.117,0.04-0.174,0.064C7.457,7.379,7.45,7.374,7.445,7.369
				C7.441,7.336,7.438,7.307,7.434,7.276C7.523,7.27,7.618,7.269,7.71,7.27 M7.049,7.399c0.046-0.042,0.108-0.071,0.184-0.091
				C7.229,7.314,7.228,7.32,7.227,7.327C7.217,7.39,7.213,7.452,7.211,7.513C7.203,7.518,7.194,7.521,7.186,7.526
				C7.147,7.528,7.109,7.554,7.099,7.593C7.084,7.528,7.066,7.462,7.049,7.399 M7.145,7.846c0.032,0.118,0.07,0.236,0.112,0.353
				C7.25,8.364,7.246,8.528,7.244,8.692C7.235,8.62,7.228,8.544,7.22,8.471C7.195,8.268,7.177,8.055,7.145,7.846 M7.562,18.316
				c0.042-0.016,0.076-0.053,0.075-0.11c-0.001-0.215-0.006-0.429-0.013-0.644c0.027,0.291,0.062,0.582,0.079,0.869
				C7.653,18.394,7.606,18.357,7.562,18.316 M16.926,18.474c0.061-0.026,0.12-0.059,0.174-0.096c0,0.001-0.001,0.002-0.001,0.003
				c-0.015,0.048,0.012,0.082,0.048,0.095C17.069,18.476,16.995,18.476,16.926,18.474 M17.704,18.392
				c0.018-0.045,0.031-0.09,0.045-0.129c0.04-0.023,0.08-0.047,0.119-0.072c0.041-0.027,0.038-0.098-0.015-0.11
				c-0.116-0.024-0.136,0.005-0.212,0.039c0.007-0.067,0.018-0.136,0.02-0.203c0.005,0.003,0.01,0.006,0.015,0.009
				c0.04,0.018,0.089-0.003,0.089-0.052v-0.438c0.004-0.078,0.012-0.156,0.021-0.234v0.541c0,0.061,0.087,0.07,0.104,0.014
				c0.009-0.031,0.018-0.062,0.027-0.095l-0.003,0.213c0,0.06,0.068,0.069,0.099,0.033c-0.002,0.093-0.017,0.185-0.055,0.269
				C17.912,18.279,17.818,18.347,17.704,18.392"/>
		</g>
		<g clip-path="url(#SVGID_4_)">
			<path fill="#010103" d="M14.617,7.992c-0.002,0.038-0.002,0.076-0.002,0.114c-0.011,0.049-0.02,0.1-0.027,0.151
				c-0.007,0.039,0.011,0.071,0.039,0.086c0.046,0.545,0.223,1.098,0.326,1.618c0.007,0.037,0.042,0.065,0.076,0.076
				c0.271,0.085,0.572,0.139,0.854,0.075c0.037-0.008,0.079-0.045,0.083-0.083c0.117-0.809-0.289-1.497-0.382-2.282
				c-0.006-0.052-0.035-0.115-0.095-0.124c-0.273-0.041-0.59-0.055-0.826,0.101c-0.011-0.001-0.023,0.004-0.025,0.017v0.001
				c-0.021,0.017-0.043,0.033-0.062,0.052C14.507,7.858,14.548,7.96,14.617,7.992 M15.378,9.89c-0.004-0.028-0.01-0.055-0.015-0.084
				c0.007,0.003,0.015,0.005,0.021,0.005C15.382,9.837,15.381,9.863,15.378,9.89L15.378,9.89z M15.263,8.099
				c0.006-0.064,0.015-0.129,0.025-0.193c0.036,0.059,0.067,0.12,0.097,0.182c0.031,0.132,0.066,0.264,0.104,0.396
				c-0.028-0.081-0.059-0.161-0.087-0.241c0.036-0.076-0.06-0.139-0.124-0.1C15.272,8.129,15.268,8.114,15.263,8.099 M14.987,8.797
				c0.063,0.191,0.113,0.387,0.156,0.587c0.001,0.004,0.001,0.008,0.001,0.013c-0.008,0.022-0.015,0.042-0.022,0.064
				c-0.014-0.036-0.024-0.074-0.035-0.11c-0.031-0.175-0.081-0.357-0.122-0.54C14.972,8.807,14.979,8.803,14.987,8.797 M15.317,9.57
				c0.017-0.017,0.03-0.037,0.047-0.056c-0.012,0.04-0.022,0.081-0.032,0.122C15.327,9.613,15.322,9.593,15.317,9.57 M14.795,8.042
				c-0.009,0.009-0.017,0.018-0.027,0.026c0.01-0.03,0.022-0.057,0.038-0.081C14.802,8.006,14.798,8.024,14.795,8.042 M15.238,9.829
				c0.003,0.013,0.005,0.024,0.008,0.037c-0.016-0.003-0.029-0.006-0.043-0.01C15.216,9.851,15.229,9.842,15.238,9.829
				 M15.652,9.907c0.003-0.054,0.004-0.107,0.003-0.161c0.001,0.017,0.003,0.035,0.004,0.053c0.001,0.051,0.049,0.068,0.084,0.053
				c-0.001,0.016,0,0.032-0.001,0.046C15.712,9.903,15.681,9.905,15.652,9.907"/>
		</g>
	</g>
</g>
</svg>
