<svg xmlns="http://www.w3.org/2000/svg" xmlns:xlink="http://www.w3.org/1999/xlink" viewBox="0 0 37.12 35.83"><defs><style>.cls-1{fill:none;}.cls-2{isolation:isolate;}.cls-3{clip-path:url(#clip-path);}.cls-4{clip-path:url(#clip-path-2);}.cls-5{fill:#f79e3d;}.cls-6{fill:#f79d3e;}.cls-7{fill:#f79c3f;}.cls-8{fill:#f79b40;}.cls-9{fill:#f69a41;}.cls-10{fill:#f69941;}.cls-11{fill:#f69842;}.cls-12{fill:#f69743;}.cls-13{fill:#f69644;}.cls-14{fill:#f69544;}.cls-15{fill:#f69445;}.cls-16{fill:#f69346;}.cls-17{fill:#f69247;}.cls-18{fill:#f69148;}.cls-19{fill:#f69048;}.cls-20{fill:#f68f49;}.cls-21{fill:#f68e4a;}.cls-22{fill:#f68d4b;}.cls-23{fill:#f68c4b;}.cls-24{fill:#f68b4c;}.cls-25{fill:#f68a4d;}.cls-26{fill:#f6894e;}.cls-27{fill:#f6884f;}.cls-28{fill:#f6874f;}.cls-29{fill:#f68650;}.cls-30{fill:#f68551;}.cls-31{fill:#f68452;}.cls-32{fill:#f68352;}.cls-33{fill:#f58253;}.cls-34{fill:#f58154;}.cls-35{fill:#f58055;}.cls-36{fill:#f58056;}.cls-37{fill:#f58057;}.cls-38{fill:#f58058;}.cls-39{fill:#f57f59;}.cls-40{fill:#f57e5a;}.cls-41{fill:#f57d5b;}.cls-42{fill:#f57c5b;}.cls-43{fill:#f57b5c;}.cls-44{fill:#f57a5d;}.cls-45{fill:#f5795e;}.cls-46{fill:#f5785e;}.cls-47{fill:#f5775f;}.cls-48{fill:#f57660;}.cls-49{fill:#f57561;}.cls-50{fill:#f57461;}.cls-51{fill:#f57362;}.cls-52{fill:#f57263;}.cls-53{clip-path:url(#clip-path-3);}.cls-54{clip-path:url(#clip-path-4);}.cls-55{fill:#f59862;}.cls-56{fill:#f59762;}.cls-57{fill:#f59662;}.cls-58{fill:#f59563;}.cls-59{fill:#f59463;}.cls-60{fill:#f59363;}.cls-61{fill:#f59263;}.cls-62{fill:#f59164;}.cls-63{fill:#f59064;}.cls-64{fill:#f58e64;}.cls-65{fill:#f58d64;}.cls-66{fill:#f58c64;}.cls-67{fill:#f58b65;}.cls-68{fill:#f58a65;}.cls-69{fill:#f58965;}.cls-70{fill:#f58865;}.cls-71{fill:#f58766;}.cls-72{fill:#f58666;}.cls-73{fill:#f58566;}.cls-74{fill:#f58466;}.cls-75{fill:#f58366;}.cls-76{fill:#f58267;}.cls-77{fill:#f58167;}.cls-78{fill:#f58067;}.cls-79{fill:#f58068;}.cls-80{fill:#f57f68;}.cls-81{fill:#f57e69;}.cls-82{fill:#f57d69;}.cls-83{fill:#f47c69;}.cls-84{fill:#f47b69;}.cls-85{fill:#f47a69;}.cls-86{fill:#f4796a;}.cls-87{fill:#f4786a;}.cls-88{fill:#f4776a;}.cls-89{fill:#f4766a;}.cls-90{fill:#f4756a;}.cls-91{fill:#f4746b;}.cls-92{fill:#f4736b;}.cls-93{fill:#f4726b;}.cls-94{fill:#f4716b;}.cls-95{fill:#f4706b;}.cls-96{fill:#f46f6c;}.cls-97{fill:#f46e6c;}.cls-98{fill:#f46d6c;}.cls-99{fill:#f46c6c;}.cls-100{fill:#f46b6d;}.cls-101{fill:#f46a6d;}.cls-102{fill:#f4696d;}.cls-103{fill:#f4686d;}.cls-104{fill:#f4676d;}.cls-105{fill:#f4666d;}.cls-106{fill:#f4666e;}.cls-107{fill:#f4656e;}.cls-108{fill:#f4646e;}.cls-109{clip-path:url(#clip-path-5);}.cls-110{fill:#f7f24f;}.cls-111{fill:#f7f14f;}.cls-112{fill:#f7f04f;}.cls-113{fill:#f7ef50;}.cls-114{fill:#f7ee50;}.cls-115{fill:#f7ed50;}.cls-116{fill:#f7ec50;}.cls-117{fill:#f7eb51;}.cls-118{fill:#f7ea51;}.cls-119{fill:#f7e851;}.cls-120{fill:#f7e751;}.cls-121{fill:#f7e651;}.cls-122{fill:#f7e552;}.cls-123{opacity:0.56;}.cls-124{clip-path:url(#clip-path-6);}.cls-125{mix-blend-mode:soft-light;}.cls-126{fill:#fff;}</style><clipPath id="clip-path"><path id="SVGID" class="cls-1" d="M19.13,10.43c3.68,0,5.52,1.22,5.52,3.68h9.2q0-11-14.72-11T4.41,15.94q0,12.89,14.72,12.88t14.72-11h-9.2c0,2.46-1.84,3.68-5.52,3.68s-5.52-1.84-5.52-5.52S15.45,10.43,19.13,10.43Z"/></clipPath><clipPath id="clip-path-2"><rect id="SVGID-2" data-name="SVGID" class="cls-1" x="-3.24" y="-43.43" width="185.05" height="130.84" transform="translate(7.46 -19.96) rotate(13.31)"/></clipPath><clipPath id="clip-path-3"><rect id="SVGID-3" data-name="SVGID" class="cls-1" x="-3.24" y="-43.46" width="184.81" height="130.84" transform="translate(7.45 -19.94) rotate(13.31)"/></clipPath><clipPath id="clip-path-4"><path id="SVGID-4" data-name="SVGID" class="cls-1" d="M-29,59.7c-.18-27.21,22.77-49.47,49.89-47.3,11.27.91,23.37,6,34.87,18.83,37.88,42.2-4,51.8-3.51,89.14C52.65,154.38-28.4,151.26-29,59.7Z"/></clipPath><clipPath id="clip-path-5"><path id="SVGID-5" data-name="SVGID" class="cls-1" d="M21.42-96.38C34.71-118,63.83-124.22,84.18-109.11c8.45,6.28,15.48,16.29,18.24,32.08,9.09,52-28.71,39-46.77,68.68C39.2,18.73-23.28-23.75,21.42-96.38Z"/></clipPath><clipPath id="clip-path-6"><rect id="SVGID-6" data-name="SVGID" class="cls-1" x="-2.91" y="-43.42" width="184.48" height="130.84" transform="translate(7.46 -19.97) rotate(13.31)"/></clipPath></defs><title>SVGICONLIMO</title><g class="cls-2"><g id="Calque_1" data-name="Calque 1"><path d="M35.32,11a10.43,10.43,0,0,0-4-6l-.05,0c-3.09-2.18-7.35-3.17-13-3C11.6,2.12.49,4.52.89,18.43S12.51,34.09,19.17,33.9c5.65-.16,9.84-1.39,12.8-3.75l0,0a10.58,10.58,0,0,0,3.71-6.2A30.42,30.42,0,0,0,35.32,11Z"/><g class="cls-3"><g class="cls-4"><polygon class="cls-5" points="107.28 106.96 36.79 -62.97 38.7 -62.97 109.19 106.96 107.28 106.96"/><polygon class="cls-6" points="105.37 106.96 34.88 -62.97 36.79 -62.97 107.28 106.96 105.37 106.96"/><polygon class="cls-7" points="103.46 106.96 32.97 -62.97 34.88 -62.97 105.37 106.96 103.46 106.96"/><polygon class="cls-8" points="101.55 106.96 31.06 -62.97 32.97 -62.97 103.46 106.96 101.55 106.96"/><polygon class="cls-9" points="99.64 106.96 29.15 -62.97 31.06 -62.97 101.55 106.96 99.64 106.96"/><polygon class="cls-10" points="97.73 106.96 27.24 -62.97 29.15 -62.97 99.64 106.96 97.73 106.96"/><polygon class="cls-11" points="95.82 106.96 25.33 -62.97 27.24 -62.97 97.73 106.96 95.82 106.96"/><polygon class="cls-12" points="93.91 106.96 23.42 -62.97 25.33 -62.97 95.82 106.96 93.91 106.96"/><polygon class="cls-13" points="91.99 106.96 21.51 -62.97 23.42 -62.97 93.91 106.96 91.99 106.96"/><polygon class="cls-14" points="90.08 106.96 19.6 -62.97 21.51 -62.97 91.99 106.96 90.08 106.96"/><polygon class="cls-15" points="88.17 106.96 17.69 -62.97 19.6 -62.97 90.08 106.96 88.17 106.96"/><polygon class="cls-16" points="86.26 106.96 15.78 -62.97 17.69 -62.97 88.17 106.96 86.26 106.96"/><polygon class="cls-17" points="84.35 106.96 13.87 -62.97 15.78 -62.97 86.26 106.96 84.35 106.96"/><polygon class="cls-18" points="82.44 106.96 12.13 -62.55 13.15 -62.97 13.87 -62.97 84.35 106.96 82.44 106.96"/><polygon class="cls-19" points="80.53 106.96 10.5 -61.87 12.13 -62.55 82.44 106.96 80.53 106.96"/><polygon class="cls-20" points="78.62 106.96 8.87 -61.19 10.5 -61.87 80.53 106.96 78.62 106.96"/><polygon class="cls-21" points="76.71 106.96 7.24 -60.52 8.87 -61.19 78.62 106.96 76.71 106.96"/><polygon class="cls-22" points="74.8 106.96 5.61 -59.84 7.24 -60.52 76.71 106.96 74.8 106.96"/><polygon class="cls-23" points="72.89 106.96 3.98 -59.16 5.61 -59.84 74.8 106.96 72.89 106.96"/><polygon class="cls-24" points="70.98 106.96 2.35 -58.49 3.98 -59.16 72.89 106.96 70.98 106.96"/><polygon class="cls-25" points="69.07 106.96 0.72 -57.81 2.35 -58.49 70.98 106.96 69.07 106.96"/><polygon class="cls-26" points="67.16 106.96 -0.91 -57.14 0.72 -57.81 69.07 106.96 67.16 106.96"/><polygon class="cls-27" points="65.25 106.96 -2.54 -56.46 -0.91 -57.14 67.16 106.96 65.25 106.96"/><polygon class="cls-28" points="63.34 106.96 -4.17 -55.78 -2.54 -56.46 65.25 106.96 63.34 106.96"/><polygon class="cls-29" points="61.42 106.96 -5.8 -55.11 -4.17 -55.78 63.34 106.96 61.42 106.96"/><polygon class="cls-30" points="59.51 106.96 -7.43 -54.43 -5.8 -55.11 61.42 106.96 59.51 106.96"/><polygon class="cls-31" points="57.6 106.96 -9.06 -53.76 -7.43 -54.43 59.51 106.96 57.6 106.96"/><polygon class="cls-32" points="55.69 106.96 -10.69 -53.08 -9.06 -53.76 57.6 106.96 55.69 106.96"/><polygon class="cls-33" points="53.78 106.96 -12.32 -52.4 -10.69 -53.08 55.69 106.96 53.78 106.96"/><polygon class="cls-34" points="51.87 106.96 -13.95 -51.73 -12.32 -52.4 53.78 106.96 51.87 106.96"/><polygon class="cls-35" points="49.96 106.96 -15.58 -51.05 -13.95 -51.73 51.87 106.96 49.96 106.96"/><polygon class="cls-35" points="48.05 106.96 -15.82 -47.02 -15.82 -50.95 -15.58 -51.05 49.96 106.96 48.05 106.96"/><polygon class="cls-36" points="46.14 106.96 -15.82 -42.41 -15.82 -47.02 48.05 106.96 46.14 106.96"/><polygon class="cls-37" points="44.23 106.96 -15.82 -37.81 -15.82 -42.41 46.14 106.96 44.23 106.96"/><polygon class="cls-38" points="42.32 106.96 -15.82 -33.2 -15.82 -37.81 44.23 106.96 42.32 106.96"/><polygon class="cls-38" points="40.41 106.96 -15.82 -28.59 -15.82 -33.2 42.32 106.96 40.41 106.96"/><polygon class="cls-39" points="38.5 106.96 -15.82 -23.99 -15.82 -28.59 40.41 106.96 38.5 106.96"/><polygon class="cls-40" points="36.59 106.96 -15.82 -19.38 -15.82 -23.99 38.5 106.96 36.59 106.96"/><polygon class="cls-41" points="34.68 106.96 -15.82 -14.78 -15.82 -19.38 36.59 106.96 34.68 106.96"/><polygon class="cls-42" points="32.77 106.96 -15.82 -10.17 -15.82 -14.78 34.68 106.96 32.77 106.96"/><polygon class="cls-43" points="30.86 106.96 -15.82 -5.56 -15.82 -10.17 32.77 106.96 30.86 106.96"/><polygon class="cls-44" points="28.94 106.96 -15.82 -0.96 -15.82 -5.56 30.86 106.96 28.94 106.96"/><polygon class="cls-45" points="27.03 106.96 -15.82 3.65 -15.82 -0.96 28.94 106.96 27.03 106.96"/><polygon class="cls-46" points="25.12 106.96 -15.82 8.26 -15.82 3.65 27.03 106.96 25.12 106.96"/><polygon class="cls-47" points="23.21 106.96 -15.82 12.86 -15.82 8.26 25.12 106.96 23.21 106.96"/><polygon class="cls-48" points="21.3 106.96 -15.82 17.47 -15.82 12.86 23.21 106.96 21.3 106.96"/><polygon class="cls-49" points="19.39 106.96 -15.82 22.07 -15.82 17.47 21.3 106.96 19.39 106.96"/><polygon class="cls-50" points="17.48 106.96 -15.82 26.68 -15.82 22.07 19.39 106.96 17.48 106.96"/><polygon class="cls-51" points="15.57 106.96 -15.82 31.29 -15.82 26.68 17.48 106.96 15.57 106.96"/><polygon class="cls-52" points="13.66 106.96 -15.82 35.89 -15.82 31.29 15.57 106.96 13.66 106.96"/></g><g class="cls-53"><g class="cls-54"><polygon class="cls-55" points="-29.21 35.2 38.46 154.38 37.69 154.38 -29.21 36.55 -29.21 35.2"/><polygon class="cls-56" points="-29.21 33.84 39.23 154.38 38.46 154.38 -29.21 35.2 -29.21 33.84"/><polygon class="cls-57" points="-29.21 32.48 40 154.38 39.23 154.38 -29.21 33.84 -29.21 32.48"/><polygon class="cls-58" points="-29.21 31.13 40.77 154.38 40 154.38 -29.21 32.48 -29.21 31.13"/><polygon class="cls-59" points="-29.21 29.77 41.54 154.38 40.77 154.38 -29.21 31.13 -29.21 29.77"/><polygon class="cls-60" points="-29.21 28.41 42.31 154.38 41.54 154.38 -29.21 29.77 -29.21 28.41"/><polygon class="cls-61" points="-29.21 27.06 43.08 154.38 42.31 154.38 -29.21 28.41 -29.21 27.06"/><polygon class="cls-62" points="-29.21 25.7 43.85 154.38 43.08 154.38 -29.21 27.06 -29.21 25.7"/><polygon class="cls-63" points="-29.21 24.34 44.62 154.38 43.85 154.38 -29.21 25.7 -29.21 24.34"/><polygon class="cls-64" points="-29.21 22.99 45.39 154.38 44.62 154.38 -29.21 24.34 -29.21 22.99"/><polygon class="cls-65" points="-29.21 22.75 -28.73 22.48 46.16 154.38 45.39 154.38 -29.21 22.99 -29.21 22.75"/><polygon class="cls-66" points="-28.73 22.48 -28.15 22.15 46.93 154.38 46.16 154.38 -28.73 22.48"/><polygon class="cls-67" points="-28.15 22.15 -27.57 21.82 47.7 154.38 46.93 154.38 -28.15 22.15"/><polygon class="cls-67" points="-27.57 21.82 -26.98 21.49 48.47 154.38 47.7 154.38 -27.57 21.82"/><polygon class="cls-68" points="-26.98 21.49 -26.4 21.16 49.24 154.38 48.47 154.38 -26.98 21.49"/><polygon class="cls-69" points="-26.4 21.16 -25.82 20.83 50.01 154.38 49.24 154.38 -26.4 21.16"/><polygon class="cls-70" points="-25.82 20.83 -25.24 20.5 50.78 154.38 50.01 154.38 -25.82 20.83"/><polygon class="cls-71" points="-25.24 20.5 -24.65 20.16 51.55 154.38 50.78 154.38 -25.24 20.5"/><polygon class="cls-72" points="-24.65 20.16 -24.07 19.83 52.32 154.38 51.55 154.38 -24.65 20.16"/><polygon class="cls-73" points="-24.07 19.83 -23.49 19.5 53.09 154.38 52.32 154.38 -24.07 19.83"/><polygon class="cls-74" points="-23.49 19.5 -22.91 19.17 53.78 154.25 53.54 154.38 53.09 154.38 -23.49 19.5"/><rect class="cls-75" x="15.4" y="8.88" width="0.67" height="155.33" transform="translate(-40.68 19.05) rotate(-29.59)"/><rect class="cls-76" x="15.98" y="8.55" width="0.67" height="155.33" transform="translate(-40.44 19.3) rotate(-29.59)"/><rect class="cls-77" x="16.56" y="8.22" width="0.67" height="155.33" transform="translate(-40.2 19.54) rotate(-29.59)"/><rect class="cls-78" x="17.14" y="7.89" width="0.67" height="155.33" transform="translate(-39.96 19.78) rotate(-29.59)"/><rect class="cls-78" x="17.73" y="7.56" width="0.67" height="155.33" transform="translate(-39.72 20.03) rotate(-29.59)"/><rect class="cls-79" x="18.31" y="7.23" width="0.67" height="155.33" transform="translate(-39.48 20.27) rotate(-29.59)"/><rect class="cls-79" x="18.89" y="6.9" width="0.67" height="155.33" transform="translate(-39.24 20.52) rotate(-29.59)"/><rect class="cls-79" x="19.47" y="6.57" width="0.67" height="155.33" transform="translate(-39 20.76) rotate(-29.59)"/><rect class="cls-79" x="20.05" y="6.24" width="0.67" height="155.33" transform="translate(-38.77 21.01) rotate(-29.59)"/><rect class="cls-80" x="20.64" y="5.91" width="0.67" height="155.33" transform="translate(-38.53 21.25) rotate(-29.59)"/><rect class="cls-81" x="21.22" y="5.57" width="0.67" height="155.33" transform="translate(-38.29 21.5) rotate(-29.59)"/><rect class="cls-82" x="21.8" y="5.24" width="0.67" height="155.33" transform="translate(-38.05 21.74) rotate(-29.59)"/><rect class="cls-83" x="22.38" y="4.91" width="0.67" height="155.33" transform="translate(-37.81 21.98) rotate(-29.59)"/><rect class="cls-84" x="22.97" y="4.58" width="0.67" height="155.33" transform="translate(-37.57 22.23) rotate(-29.59)"/><rect class="cls-85" x="23.55" y="4.25" width="0.67" height="155.33" transform="translate(-37.33 22.47) rotate(-29.59)"/><rect class="cls-86" x="24.13" y="3.92" width="0.67" height="155.33" transform="translate(-37.09 22.72) rotate(-29.59)"/><rect class="cls-87" x="24.71" y="3.59" width="0.67" height="155.33" transform="translate(-36.85 22.96) rotate(-29.59)"/><rect class="cls-88" x="25.3" y="3.26" width="0.67" height="155.33" transform="translate(-36.61 23.21) rotate(-29.59)"/><rect class="cls-89" x="25.88" y="2.93" width="0.67" height="155.33" transform="translate(-36.37 23.45) rotate(-29.59)"/><rect class="cls-90" x="26.46" y="2.6" width="0.67" height="155.33" transform="translate(-36.13 23.7) rotate(-29.59)"/><rect class="cls-91" x="27.04" y="2.27" width="0.67" height="155.33" transform="translate(-35.9 23.94) rotate(-29.59)"/><rect class="cls-92" x="27.63" y="1.94" width="0.67" height="155.33" transform="translate(-35.66 24.18) rotate(-29.59)"/><rect class="cls-93" x="28.21" y="1.61" width="0.67" height="155.33" transform="translate(-35.42 24.43) rotate(-29.59)"/><rect class="cls-94" x="28.79" y="1.28" width="0.67" height="155.33" transform="matrix(0.87, -0.49, 0.49, 0.87, -35.18, 24.67)"/><rect class="cls-95" x="29.37" y="0.95" width="0.67" height="155.33" transform="translate(-34.94 24.92) rotate(-29.59)"/><rect class="cls-96" x="29.95" y="0.61" width="0.67" height="155.33" transform="translate(-34.7 25.16) rotate(-29.59)"/><rect class="cls-96" x="30.54" y="0.28" width="0.67" height="155.33" transform="translate(-34.46 25.41) rotate(-29.59)"/><polygon class="cls-97" points="-7.18 10.24 -7.15 10.23 -6.42 10.23 70.09 144.99 69.51 145.32 -7.18 10.24"/><polygon class="cls-98" points="-5.65 10.23 70.67 144.66 70.09 144.99 -6.42 10.23 -5.65 10.23"/><polygon class="cls-99" points="-4.88 10.23 71.26 144.32 70.67 144.66 -5.65 10.23 -4.88 10.23"/><polygon class="cls-100" points="-4.11 10.23 71.84 143.99 71.26 144.32 -4.88 10.23 -4.11 10.23"/><polygon class="cls-101" points="-3.34 10.23 72.42 143.66 71.84 143.99 -4.11 10.23 -3.34 10.23"/><polygon class="cls-102" points="-2.57 10.23 73 143.33 72.42 143.66 -3.34 10.23 -2.57 10.23"/><polygon class="cls-103" points="-1.8 10.23 73.59 143 73 143.33 -2.57 10.23 -1.8 10.23"/><polygon class="cls-104" points="-1.03 10.23 74.17 142.67 73.59 143 -1.8 10.23 -1.03 10.23"/><polygon class="cls-105" points="-0.26 10.23 74.75 142.34 74.17 142.67 -1.03 10.23 -0.26 10.23"/><polygon class="cls-106" points="0.51 10.23 75.33 142.01 74.75 142.34 -0.26 10.23 0.51 10.23"/><polygon class="cls-107" points="1.28 10.23 75.92 141.68 75.33 142.01 0.51 10.23 1.28 10.23"/><polygon class="cls-108" points="2.05 10.23 76.5 141.35 75.92 141.68 1.28 10.23 2.05 10.23"/><polygon class="cls-108" points="93.61 131.63 76.5 141.35 2.05 10.23 93.61 10.23 93.61 131.63"/></g><g class="cls-109"><polygon class="cls-110" points="-14.74 18.73 -17.53 5.55 111.51 -21.78 111.51 18.73 -14.74 18.73"/><polygon class="cls-110" points="-17.53 5.55 -17.62 5.09 111.51 -22.26 111.51 -21.78 -17.53 5.55"/><polygon class="cls-111" points="-17.62 5.09 -17.72 4.64 111.51 -22.73 111.51 -22.26 -17.62 5.09"/><polygon class="cls-112" points="-17.72 4.64 -17.82 4.19 111.51 -23.2 111.51 -22.73 -17.72 4.64"/><polygon class="cls-113" points="-17.82 4.19 -17.91 3.74 111.51 -23.67 111.51 -23.2 -17.82 4.19"/><polygon class="cls-114" points="-17.91 3.74 -18.01 3.29 111.51 -24.14 111.51 -23.67 -17.91 3.74"/><polygon class="cls-115" points="-18.01 3.29 -18.1 2.84 111.51 -24.61 111.51 -24.14 -18.01 3.29"/><polygon class="cls-116" points="-18.1 2.84 -18.2 2.39 111.51 -25.09 111.51 -24.61 -18.1 2.84"/><polygon class="cls-117" points="-18.2 2.39 -18.29 1.94 111.51 -25.56 111.51 -25.09 -18.2 2.39"/><polygon class="cls-118" points="-18.29 1.94 -18.39 1.48 111.51 -26.03 111.51 -25.56 -18.29 1.94"/><polygon class="cls-119" points="-18.39 1.48 -18.48 1.03 111.51 -26.5 111.51 -26.03 -18.39 1.48"/><polygon class="cls-120" points="-18.48 1.03 -18.58 0.58 111.51 -26.97 111.51 -26.5 -18.48 1.03"/><polygon class="cls-121" points="-18.58 0.58 -18.68 0.13 111.51 -27.44 111.51 -26.97 -18.58 0.58"/><polygon class="cls-122" points="-18.68 0.13 -18.77 -0.32 111.51 -27.92 111.51 -27.44 -18.68 0.13"/></g></g><g class="cls-123"><g class="cls-124"><g class="cls-125"><path class="cls-126" d="M.64-42.57C.51-61.79,16.72-77.52,35.88-76c8,.64,16.51,4.25,24.63,13.3C87.27-32.87,57.7-26.09,58,.28,58.34,24.31,1.08,22.1.64-42.57Z"/><path class="cls-126" d="M8.21,31.94C-4.42,42.27,6.06,62.46,21.78,58.08l.76-.22c25.81-7.55,20.19-29.6,7.92-33.45C23.72,22.3,15.28,26.16,8.21,31.94Z"/></g></g></g></g></g></g></svg>